<?xml version="1.0" encoding="iso-8859-1"?>
<!-- Generator: Adobe Illustrator 18.1.1, SVG Export Plug-In . SVG Version: 6.00 Build 0)  -->
<!DOCTYPE svg PUBLIC "-//W3C//DTD SVG 1.1//EN" "http://www.w3.org/Graphics/SVG/1.1/DTD/svg11.dtd">
<svg version="1.1" id="Layer_1" xmlns="http://www.w3.org/2000/svg" xmlns:xlink="http://www.w3.org/1999/xlink" x="0px" y="0px"
	 viewBox="0 0 55.629 53.642" style="enable-background:new 0 0 55.629 53.642;" xml:space="preserve">
<path style="fill:#FF971A;" d="M41.574,49.323h-27c-5.523,0-10-4.477-10-10v-25.4c0-5.523,4.477-10,10-10h27c5.523,0,10,4.477,10,10
	v25.4C51.574,44.845,47.097,49.323,41.574,49.323z"/>
<path style="fill:#FFFFFF;" d="M41.629,24.246H21.262l6.403-6.417c0.314-0.313,0.486-0.738,0.486-1.183
	c0-0.445-0.172-0.867-0.486-1.181l-0.996-0.997c-0.313-0.313-0.731-0.486-1.176-0.486c-0.445,0-0.863,0.172-1.176,0.485
	L13.341,25.442c-0.315,0.315-0.486,0.733-0.485,1.179c-0.001,0.448,0.171,0.867,0.485,1.181l10.975,10.975
	c0.313,0.313,0.731,0.485,1.176,0.485c0.445,0,0.863-0.172,1.176-0.485l0.996-0.997c0.314-0.313,0.486-0.73,0.486-1.176
	c0-0.445-0.172-0.841-0.486-1.154l-6.475-6.453h20.415c0.917,0,1.688-0.791,1.688-1.707v-1.41c0-0.917-0.794-1.646-1.711-1.646"/>
<g>
</g>
<g>
</g>
<g>
</g>
<g>
</g>
<g>
</g>
<g>
</g>
<g>
</g>
<g>
</g>
<g>
</g>
<g>
</g>
<g>
</g>
<g>
</g>
<g>
</g>
<g>
</g>
<g>
</g>
</svg>
