<?xml version="1.0" encoding="iso-8859-1"?>
<!-- Generator: Adobe Illustrator 18.1.1, SVG Export Plug-In . SVG Version: 6.00 Build 0)  -->
<!DOCTYPE svg PUBLIC "-//W3C//DTD SVG 1.1//EN" "http://www.w3.org/Graphics/SVG/1.1/DTD/svg11.dtd">
<svg version="1.1" id="Layer_1" xmlns="http://www.w3.org/2000/svg" xmlns:xlink="http://www.w3.org/1999/xlink" x="0px" y="0px"
	 viewBox="0 0 401.324 207.947" style="enable-background:new 0 0 401.324 207.947;" xml:space="preserve">
<g>
	<g>
		<g>
			<g>
				<path style="fill:#0FA3B1;" d="M303.291,57.065l-9.358,6.104c-1.029-1.104-2.393-1.915-3.979-2.249
					c-4.095-0.862-8.127,1.768-8.989,5.863c-0.862,4.095,1.768,8.127,5.863,8.989c4.095,0.862,8.127-1.768,8.989-5.863
					c0.334-1.586,0.142-3.162-0.454-4.549l9.358-6.103c0.605-0.395,0.776-1.205,0.381-1.811
					C304.707,56.84,303.896,56.67,303.291,57.065z M287.366,73.211c-2.683-0.565-4.406-3.207-3.841-5.89
					c0.565-2.683,3.207-4.406,5.89-3.841c2.683,0.565,4.406,3.207,3.841,5.89C292.691,72.052,290.049,73.776,287.366,73.211z"/>
				<path style="fill:#0FA3B1;" d="M307.956,54.479c-0.337-0.071-0.696-0.003-0.984,0.185c-0.288,0.188-0.495,0.49-0.566,0.826
					c-0.071,0.337-0.003,0.696,0.185,0.984c0.188,0.288,0.49,0.495,0.826,0.566c0.337,0.071,0.696,0.003,0.984-0.185
					c0.288-0.188,0.495-0.49,0.566-0.826c0.071-0.337,0.003-0.696-0.185-0.984C308.595,54.757,308.293,54.55,307.956,54.479z"/>
			</g>
			
				<line style="fill:none;stroke:#0FA3B1;stroke-width:2.9328;stroke-linecap:round;stroke-miterlimit:10;" x1="294.758" y1="29.71" x2="287.98" y2="60.776"/>
			
				<line style="fill:none;stroke:#FF971A;stroke-width:2.9328;stroke-linecap:round;stroke-miterlimit:10;" x1="327" y1="32.296" x2="340.657" y2="37.251"/>
			
				<line style="fill:none;stroke:#0FA3B1;stroke-width:2.9328;stroke-linecap:round;stroke-miterlimit:10;" x1="292.642" y1="72.952" x2="328.62" y2="75.311"/>
			<g>
				<path style="fill:#FF971A;" d="M339.47,67.064c-2.152-0.453-4.289-0.149-6.136,0.729l-7.922-12.147
					c1.548-1.337,2.688-3.17,3.141-5.322c0.216-1.027,0.258-2.051,0.149-3.042l11.382-2.833c0.957,2.151,2.895,3.831,5.37,4.352
					c4.095,0.862,8.127-1.768,8.989-5.863s-1.768-8.127-5.863-8.989s-8.127,1.768-8.989,5.863c-0.149,0.707-0.191,1.412-0.142,2.099
					l-11.381,2.833c-1.01-2.521-3.061-4.578-5.733-5.53l0.717-3.404c1.893-0.174,3.537-1.559,3.949-3.514
					c0.505-2.4-1.036-4.764-3.437-5.27s-4.764,1.036-5.27,3.437c-0.412,1.955,0.535,3.886,2.197,4.808l-0.717,3.404
					c-1.704-0.124-3.363,0.209-4.838,0.91l-6.534-10.019c2.563-2.163,3.998-5.44,3.8-8.837c-0.042-0.722-0.661-1.273-1.382-1.23
					c-0.721,0.042-1.272,0.661-1.23,1.382c0.168,2.89-1.226,5.667-3.639,7.256c-0.01,0.006-0.02,0.011-0.03,0.018
					c-0.009,0.006-0.016,0.012-0.025,0.018c-3.744,2.422-8.762,1.358-11.2-2.38c-2.444-3.747-1.383-8.783,2.363-11.226
					c2.37-1.545,5.316-1.751,7.882-0.549c0.654,0.306,1.433,0.025,1.74-0.63c0.306-0.654,0.025-1.433-0.63-1.74
					c-3.392-1.589-7.288-1.317-10.421,0.726c-4.955,3.232-6.357,9.893-3.126,14.848c1.616,2.478,4.089,4.067,6.778,4.633
					c2.286,0.481,4.726,0.219,6.929-0.862l6.535,10.02c-1.548,1.337-2.688,3.17-3.141,5.321c-1.1,5.224,2.256,10.369,7.48,11.469
					c2.151,0.453,4.289,0.149,6.136-0.729l7.922,12.147c-1.548,1.337-2.688,3.17-3.141,5.322c-1.1,5.224,2.256,10.369,7.48,11.469
					c5.224,1.1,10.369-2.256,11.469-7.48C348.05,73.309,344.695,68.164,339.47,67.064z M348.042,36.51
					c2.683,0.565,4.406,3.207,3.841,5.89c-0.565,2.683-3.207,4.406-5.89,3.841c-2.683-0.565-4.406-3.207-3.841-5.89
					C342.717,37.668,345.359,35.945,348.042,36.51z M323.024,29.587c0.988,0.208,1.623,1.181,1.415,2.17
					c-0.208,0.988-1.181,1.623-2.17,1.415c-0.988-0.208-1.623-1.181-1.415-2.17S322.036,29.379,323.024,29.587z M312.165,46.875
					c0.803-3.812,4.557-6.261,8.369-5.459c3.812,0.803,6.261,4.557,5.459,8.369c-0.803,3.812-4.557,6.261-8.369,5.459
					C313.811,54.442,311.362,50.687,312.165,46.875z M336.02,83.453c-3.812-0.803-6.261-4.557-5.458-8.369
					c0.803-3.812,4.557-6.261,8.369-5.459c3.812,0.803,6.261,4.557,5.459,8.369S339.833,84.256,336.02,83.453z"/>
				<path style="fill:#FF971A;" d="M308.313,16.973c0.197,0.305,0.5,0.501,0.83,0.571c0.326,0.069,0.677,0.014,0.979-0.181
					c0.607-0.392,0.782-1.202,0.39-1.809l-0.036-0.056c-0.396-0.604-1.207-0.773-1.812-0.377c-0.604,0.396-0.773,1.207-0.377,1.812
					L308.313,16.973z"/>
			</g>
		</g>
		<g>
			<g>
				<path style="fill:#FF971A;" d="M307.613,105.917h10.009v71.507h-10.009V105.917z"/>
				<path style="fill:#FF971A;" d="M388.923,141.619c0,6.19-0.964,11.574-2.889,16.148c-1.927,4.575-4.644,8.357-8.152,11.35
					c-3.508,2.992-7.705,5.229-12.588,6.707c-4.886,1.48-10.251,2.219-16.097,2.219c-2.89,0-6.072-0.121-9.545-0.361
					c-3.475-0.241-6.622-0.704-9.441-1.393v-69.341c2.819-0.687,5.967-1.15,9.441-1.393c3.473-0.24,6.655-0.361,9.545-0.361
					c5.846,0,11.211,0.74,16.097,2.219c4.883,1.479,9.08,3.715,12.588,6.707c3.509,2.992,6.226,6.776,8.152,11.351
					C387.959,130.046,388.923,135.428,388.923,141.619z M350.022,169.273c9.493,0,16.577-2.425,21.256-7.274
					c4.677-4.85,7.017-11.643,7.017-20.379c0-8.735-2.34-15.529-7.017-20.38c-4.679-4.85-11.763-7.274-21.256-7.274
					c-2.821,0-5.005,0.036-6.553,0.104c-1.548,0.069-2.631,0.139-3.25,0.206v54.688c0.619,0.069,1.702,0.139,3.25,0.206
					C345.018,169.238,347.201,169.273,350.022,169.273z"/>
			</g>
			<g>
				<path style="fill:#0FA3B1;" d="M12.834,105.679h7.016v71.507h-7.016V105.679z"/>
				<path style="fill:#0FA3B1;" d="M33.882,125.696c1.994-0.55,4.592-1.169,7.79-1.857c3.199-0.687,7.343-1.031,12.434-1.031
					c6.741,0,11.625,1.96,14.652,5.881c0.344-0.273,1.015-0.738,2.013-1.393c0.996-0.653,2.252-1.324,3.766-2.013
					c1.513-0.687,3.284-1.271,5.314-1.754c2.028-0.48,4.282-0.722,6.759-0.722c4.058,0,7.342,0.603,9.854,1.806
					c2.511,1.204,4.453,2.889,5.83,5.056c1.376,2.167,2.304,4.765,2.786,7.79c0.48,3.028,0.723,6.33,0.723,9.906v29.82h-6.707
					v-27.653c0-3.509-0.155-6.553-0.465-9.132c-0.31-2.58-0.929-4.711-1.857-6.397c-0.929-1.685-2.254-2.957-3.973-3.818
					c-1.72-0.859-3.956-1.289-6.707-1.289c-2.063,0-3.938,0.189-5.623,0.567c-1.687,0.379-3.147,0.843-4.386,1.393
					c-1.238,0.552-2.254,1.102-3.044,1.651c-0.791,0.551-1.358,0.964-1.702,1.238c0.619,1.789,1.083,3.802,1.393,6.036
					c0.31,2.236,0.465,4.592,0.465,7.068v30.336h-6.707v-27.653c0-3.509-0.155-6.553-0.465-9.132
					c-0.31-2.58-0.946-4.711-1.908-6.397c-0.965-1.685-2.322-2.957-4.076-3.818c-1.754-0.859-4.076-1.289-6.965-1.289
					c-3.234,0-5.969,0.172-8.203,0.516c-2.236,0.345-3.663,0.654-4.282,0.929v46.846h-6.707V125.696z"/>
				<path style="fill:#0FA3B1;" d="M125.509,196.274h-6.707v-70.578c1.994-0.687,4.54-1.342,7.636-1.961
					c3.096-0.618,7.017-0.928,11.763-0.928c3.921,0,7.481,0.637,10.68,1.908c3.199,1.274,5.949,3.113,8.255,5.521
					c2.304,2.409,4.092,5.332,5.365,8.771c1.272,3.44,1.909,7.326,1.909,11.66c0,4.06-0.533,7.79-1.6,11.195
					c-1.067,3.405-2.631,6.33-4.694,8.771c-2.063,2.442-4.592,4.351-7.584,5.727c-2.992,1.375-6.415,2.063-10.268,2.063
					c-3.508,0-6.552-0.5-9.132-1.496c-2.579-0.996-4.454-1.943-5.623-2.838V196.274z M125.509,167.59
					c0.619,0.481,1.393,0.997,2.321,1.547c0.929,0.552,2.013,1.067,3.251,1.548c1.237,0.482,2.579,0.877,4.023,1.187
					c1.445,0.31,2.957,0.465,4.54,0.465c3.303,0,6.07-0.567,8.307-1.702c2.234-1.136,4.04-2.684,5.417-4.644
					c1.376-1.961,2.374-4.265,2.993-6.914c0.619-2.646,0.929-5.45,0.929-8.409c0-7.017-1.755-12.398-5.263-16.148
					c-3.509-3.748-8.151-5.623-13.93-5.623c-3.303,0-5.969,0.154-7.997,0.464c-2.03,0.31-3.561,0.637-4.592,0.98V167.59z"/>
				<path style="fill:#0FA3B1;" d="M220.335,150.564c0,4.197-0.603,8.015-1.806,11.454c-1.204,3.44-2.889,6.363-5.056,8.771
					c-2.167,2.409-4.73,4.282-7.688,5.624c-2.958,1.341-6.227,2.012-9.803,2.012c-3.577,0-6.846-0.671-9.802-2.012
					c-2.959-1.342-5.521-3.215-7.688-5.624c-2.167-2.407-3.854-5.33-5.057-8.771c-1.204-3.439-1.806-7.257-1.806-11.454
					c0-4.194,0.602-8.013,1.806-11.453c1.203-3.438,2.89-6.38,5.057-8.822c2.167-2.441,4.729-4.334,7.688-5.675
					c2.956-1.342,6.225-2.013,9.802-2.013c3.576,0,6.845,0.671,9.803,2.013c2.957,1.341,5.521,3.233,7.688,5.675
					c2.167,2.442,3.852,5.384,5.056,8.822C219.733,142.551,220.335,146.369,220.335,150.564z M213.216,150.564
					c0-6.671-1.548-11.985-4.644-15.941c-3.096-3.955-7.292-5.934-12.589-5.934c-5.298,0-9.492,1.979-12.588,5.934
					c-3.096,3.956-4.644,9.271-4.644,15.941c0,6.674,1.548,11.97,4.644,15.891s7.29,5.882,12.588,5.882
					c5.297,0,9.493-1.961,12.589-5.882S213.216,157.237,213.216,150.564z"/>
				<path style="fill:#0FA3B1;" d="M248.915,122.808c2.201,0,4.282,0.172,6.243,0.516c1.96,0.345,3.317,0.688,4.075,1.031
					l-1.341,5.778c-0.552-0.273-1.669-0.567-3.354-0.877c-1.687-0.31-3.905-0.464-6.655-0.464c-2.89,0-5.211,0.206-6.966,0.619
					c-1.754,0.412-2.906,0.758-3.456,1.031v46.743h-6.707v-50.87c1.719-0.756,4.092-1.53,7.119-2.321
					C240.901,123.204,244.582,122.808,248.915,122.808z"/>
				<path style="fill:#0FA3B1;" d="M271.513,123.839h21.256v5.676h-21.256v28.375c0,3.028,0.258,5.487,0.774,7.378
					c0.516,1.893,1.254,3.354,2.218,4.386c0.963,1.031,2.132,1.72,3.509,2.063c1.375,0.345,2.889,0.516,4.54,0.516
					c2.819,0,5.09-0.325,6.811-0.98c1.719-0.652,3.06-1.254,4.023-1.806l1.651,5.572c-0.964,0.619-2.649,1.325-5.056,2.115
					c-2.409,0.79-5.022,1.187-7.843,1.187c-3.302,0-6.071-0.431-8.306-1.289c-2.236-0.859-4.024-2.167-5.366-3.922
					c-1.341-1.754-2.288-3.937-2.837-6.552c-0.552-2.613-0.826-5.709-0.826-9.287v-49.115l6.707-1.238V123.839z"/>
			</g>
		</g>
	</g>
</g>
<g>
</g>
<g>
</g>
<g>
</g>
<g>
</g>
<g>
</g>
<g>
</g>
<g>
</g>
<g>
</g>
<g>
</g>
<g>
</g>
<g>
</g>
<g>
</g>
<g>
</g>
<g>
</g>
<g>
</g>
</svg>
