<?xml version="1.0" standalone="no"?><!-- Generator: Gravit.io --><svg xmlns="http://www.w3.org/2000/svg" xmlns:xlink="http://www.w3.org/1999/xlink" style="isolation:isolate" viewBox="0 0 212 212" width="212" height="212"><defs><clipPath id="_clipPath_tOn5lKs9hRH5FyLSDfJIhYtmQCT8wu9B"><rect width="212" height="212"/></clipPath></defs><g clip-path="url(#_clipPath_tOn5lKs9hRH5FyLSDfJIhYtmQCT8wu9B)"><g id="Close"><path d=" M 131.196 106 L 206.782 30.414 C 213.74 23.456 213.74 12.176 206.782 5.219 C 199.824 -1.739 188.545 -1.739 181.587 5.219 L 106 80.806 L 30.413 5.218 C 23.455 -1.74 12.176 -1.74 5.218 5.218 C -1.739 12.176 -1.739 23.456 5.218 30.413 L 80.805 105.999 L 5.218 181.586 C -1.739 188.544 -1.739 199.824 5.218 206.781 C 12.176 213.739 23.455 213.739 30.413 206.781 L 106 131.194 L 181.587 206.781 C 188.544 213.739 199.824 213.739 206.782 206.781 C 213.74 199.823 213.74 188.544 206.782 181.586 L 131.196 106 Z " fill-rule="evenodd" fill="rgb(255,255,255)"/></g></g></svg>