<?xml version="1.0" encoding="iso-8859-1"?>
<!-- Generator: Adobe Illustrator 18.1.1, SVG Export Plug-In . SVG Version: 6.00 Build 0)  -->
<!DOCTYPE svg PUBLIC "-//W3C//DTD SVG 1.1//EN" "http://www.w3.org/Graphics/SVG/1.1/DTD/svg11.dtd">
<svg version="1.1" id="Layer_1" xmlns="http://www.w3.org/2000/svg" xmlns:xlink="http://www.w3.org/1999/xlink" x="0px" y="0px"
	 viewBox="0 0 444.767 112.88" style="enable-background:new 0 0 444.767 112.88;" xml:space="preserve">
<g>
	<g>
		<g>
			<g>
				<path style="fill:#FF971A;" d="M39.017,59.851c0.359,0.276,0.824,0.401,1.273,0.342c0.449-0.059,0.866-0.299,1.143-0.658
					c0.276-0.359,0.401-0.824,0.342-1.273c-0.059-0.449-0.299-0.866-0.658-1.143c-0.359-0.276-0.824-0.401-1.273-0.342
					c-0.449,0.059-0.866,0.299-1.143,0.658c-0.276,0.359-0.401,0.824-0.342,1.273C38.418,59.157,38.658,59.574,39.017,59.851z"/>
				<path style="fill:#FF971A;" d="M54.556,92.42L16.698,69.789c0.43-0.391,0.845-0.807,1.212-1.284
					c1.301-1.692,1.972-3.671,2.056-5.657l14.587-1.905c0.943-0.123,1.608-0.988,1.485-1.932c-0.123-0.943-0.988-1.608-1.931-1.485
					l-14.587,1.905c-0.591-1.897-1.748-3.638-3.439-4.938c-0.161-0.124-0.342-0.202-0.508-0.315l26.385-33.795
					c0.697-0.892,0.538-2.179-0.354-2.875c-0.89-0.694-2.179-0.538-2.875,0.354l-27.123,34.74c-3.513-0.571-7.22,0.707-9.537,3.721
					c-3.359,4.368-2.538,10.653,1.83,14.012c2.73,2.1,6.21,2.566,9.256,1.553c0.107,0.108,0.202,0.226,0.339,0.308l39.161,23.409
					c0.035,0.021,0.071,0.042,0.107,0.06c0.863,0.442,1.932,0.143,2.437-0.701C55.723,94.085,55.436,92.945,54.556,92.42z
					 M5.997,67.603c-2.861-2.2-3.399-6.319-1.199-9.18c2.201-2.862,6.319-3.399,9.18-1.199c2.861,2.201,3.399,6.319,1.199,9.18
					C12.977,69.266,8.859,69.803,5.997,67.603z"/>
			</g>
		</g>
		<g>
			<path style="fill:#0FA3B1;" d="M101.038,55.93c-2.769-2.13-6.306-2.567-9.382-1.497c-0.092-0.243-0.229-0.472-0.422-0.669
				l-13.38-13.67c-0.154-0.156-0.337-0.26-0.522-0.353c0.661-2.253-0.063-4.781-2.033-6.296c-2.56-1.969-6.245-1.488-8.214,1.073
				c-1.604,2.085-1.582,4.916-0.135,6.959l-2.792,3.631c-1.951-1.119-4.11-1.67-6.26-1.68l-2.039-15.617
				c4.275-1.105,7.848-4.176,9.55-8.319c0.362-0.88-0.059-1.887-0.939-2.248c-0.88-0.362-1.887,0.059-2.248,0.939
				c-1.449,3.526-4.687,6.026-8.458,6.535c-0.015,0.002-0.03,0.002-0.046,0.004c-0.013,0.002-0.027,0.005-0.04,0.007
				c-5.824,0.738-11.173-3.386-11.934-9.213c-0.763-5.84,3.368-11.212,9.208-11.974c3.694-0.482,7.307,0.955,9.666,3.845
				c0.601,0.736,1.687,0.847,2.424,0.245c0.737-0.602,0.847-1.687,0.245-2.424c-3.119-3.82-7.897-5.72-12.782-5.082
				C42.782,1.13,37.318,8.235,38.327,15.959c0.504,3.862,2.533,7.159,5.4,9.364c2.438,1.875,5.483,2.956,8.714,2.93l2.04,15.618
				c-2.6,0.704-4.998,2.229-6.763,4.524c-4.285,5.572-3.238,13.592,2.335,17.878c2.295,1.765,5.004,2.623,7.697,2.635l2.472,18.934
				c-2.6,0.703-4.998,2.229-6.763,4.524c-4.285,5.573-3.238,13.592,2.334,17.878c5.573,4.285,13.592,3.238,17.878-2.335
				c4.285-5.573,3.238-13.592-2.335-17.877c-2.295-1.765-5.005-2.623-7.698-2.635l-2.472-18.933c2.6-0.704,4.999-2.229,6.764-4.524
				c0.843-1.096,1.476-2.287,1.912-3.525l15.123,3.13c-0.091,3.099,1.251,6.198,3.89,8.228c4.368,3.359,10.654,2.538,14.012-1.83
				S105.406,59.288,101.038,55.93z M69.236,92.762c4.066,3.127,4.831,8.979,1.704,13.046c-3.127,4.066-8.979,4.831-13.046,1.703
				c-4.066-3.127-4.831-8.979-1.704-13.046C59.318,90.399,65.17,89.635,69.236,92.762z M69.816,36.616
				c0.811-1.054,2.328-1.252,3.382-0.442c1.054,0.811,1.252,2.328,0.442,3.382c-0.811,1.054-2.328,1.252-3.382,0.442
				C69.203,39.187,69.005,37.67,69.816,36.616z M65.199,61.837c-3.127,4.067-8.979,4.831-13.046,1.704
				c-4.066-3.127-4.831-8.979-1.704-13.046c3.127-4.067,8.979-4.831,13.046-1.704C67.562,51.919,68.326,57.771,65.199,61.837z
				 M85.66,60.169l-15.122-3.13c0.239-3.568-1.022-7.179-3.649-9.833l2.792-3.631c1.821,0.678,3.874,0.393,5.454-0.739
				l13.224,13.511c-0.479,0.421-0.929,0.888-1.333,1.412C86.446,58.514,85.994,59.326,85.66,60.169z M100.137,67.841
				c-2.201,2.862-6.319,3.399-9.18,1.199c-2.862-2.201-3.399-6.319-1.199-9.18c2.201-2.862,6.319-3.399,9.18-1.199
				C101.799,60.861,102.337,64.98,100.137,67.841z"/>
			<path style="fill:#0FA3B1;" d="M62.935,12.813c0.06,0.475,0.308,0.88,0.659,1.151c0.347,0.267,0.796,0.403,1.265,0.344
				c0.944-0.119,1.613-0.98,1.494-1.924l-0.011-0.087c-0.126-0.943-0.992-1.606-1.935-1.481c-0.943,0.125-1.606,0.992-1.481,1.935
				L62.935,12.813z"/>
		</g>
	</g>
	<g>
		<g>
			<path style="fill:#0FA3B1;" d="M124.899,29.732h7.917v56.563h-7.917V29.732z"/>
			<path style="fill:#0FA3B1;" d="M146.365,45.077c1.741-0.435,4.041-0.898,6.897-1.388s6.162-0.735,9.917-0.735
				c2.72,0,5.006,0.368,6.855,1.102s3.4,1.81,4.653,3.224c0.38-0.271,0.979-0.653,1.795-1.143s1.822-0.966,3.021-1.429
				c1.196-0.461,2.53-0.87,3.999-1.224c1.47-0.354,3.047-0.531,4.734-0.531c3.265,0,5.93,0.477,7.999,1.429
				c2.066,0.953,3.686,2.299,4.856,4.04c1.169,1.742,1.958,3.81,2.366,6.203c0.408,2.396,0.612,5.007,0.612,7.836v23.833h-7.591
				V64.094c0-2.502-0.122-4.652-0.367-6.447c-0.245-1.796-0.708-3.292-1.388-4.489c-0.681-1.196-1.605-2.082-2.774-2.653
				c-1.171-0.571-2.681-0.856-4.53-0.856c-2.559,0-4.666,0.34-6.325,1.02c-1.661,0.682-2.79,1.294-3.388,1.837
				c0.435,1.416,0.762,2.967,0.979,4.652c0.217,1.688,0.326,3.456,0.326,5.306v23.833h-7.591V64.094
				c0-2.502-0.136-4.652-0.408-6.447c-0.272-1.796-0.748-3.292-1.428-4.489c-0.682-1.196-1.605-2.082-2.775-2.653
				c-1.171-0.571-2.652-0.856-4.448-0.856c-0.763,0-1.579,0.027-2.448,0.081c-0.871,0.055-1.702,0.123-2.49,0.204
				c-0.789,0.082-1.51,0.178-2.162,0.286c-0.653,0.109-1.09,0.191-1.307,0.245v35.831h-7.591V45.077z"/>
			<path style="fill:#0FA3B1;" d="M254.022,65.156c0,3.211-0.422,6.176-1.266,8.896c-0.844,2.722-2.081,5.061-3.713,7.02
				c-1.633,1.959-3.633,3.482-6,4.57c-2.366,1.088-5.074,1.633-8.121,1.633c-2.448,0-4.611-0.326-6.488-0.979
				c-1.878-0.653-3.279-1.278-4.204-1.877v16.977h-7.591V45.158c1.796-0.435,4.041-0.911,6.734-1.429
				c2.693-0.516,5.808-0.775,9.346-0.775c3.265,0,6.203,0.518,8.814,1.551c2.612,1.035,4.843,2.504,6.693,4.408
				c1.849,1.905,3.277,4.231,4.285,6.979C253.518,58.64,254.022,61.728,254.022,65.156z M246.105,65.156
				c0-4.951-1.225-8.761-3.673-11.427c-2.449-2.666-5.714-4-9.795-4c-2.285,0-4.068,0.082-5.346,0.245
				c-1.279,0.163-2.3,0.354-3.062,0.571v26.771c0.925,0.763,2.258,1.497,4,2.204c1.74,0.708,3.645,1.061,5.713,1.061
				c2.176,0,4.04-0.394,5.591-1.183s2.816-1.878,3.796-3.266s1.686-3.02,2.122-4.896C245.886,69.359,246.105,67.332,246.105,65.156z
				"/>
			<path style="fill:#0FA3B1;" d="M302.177,65.074c0,3.375-0.489,6.422-1.469,9.142c-0.979,2.722-2.354,5.061-4.122,7.02
				c-1.769,1.959-3.877,3.469-6.325,4.53c-2.449,1.061-5.115,1.592-7.999,1.592c-2.885,0-5.55-0.531-7.999-1.592
				c-2.448-1.062-4.558-2.571-6.325-4.53c-1.77-1.959-3.143-4.298-4.122-7.02c-0.979-2.72-1.469-5.767-1.469-9.142
				c0-3.318,0.489-6.353,1.469-9.101c0.979-2.747,2.353-5.102,4.122-7.06c1.768-1.959,3.877-3.469,6.325-4.53
				c2.449-1.061,5.114-1.592,7.999-1.592c2.884,0,5.55,0.531,7.999,1.592c2.448,1.061,4.557,2.571,6.325,4.53
				c1.768,1.958,3.143,4.312,4.122,7.06C301.688,58.721,302.177,61.755,302.177,65.074z M294.26,65.074
				c0-4.787-1.075-8.583-3.224-11.386c-2.15-2.802-5.074-4.203-8.774-4.203c-3.701,0-6.625,1.401-8.774,4.203
				c-2.15,2.803-3.224,6.599-3.224,11.386c0,4.789,1.073,8.585,3.224,11.387c2.149,2.803,5.073,4.203,8.774,4.203
				c3.7,0,6.624-1.4,8.774-4.203C293.185,73.658,294.26,69.863,294.26,65.074z"/>
			<path style="fill:#0FA3B1;" d="M328.542,42.954c0.652,0,1.4,0.041,2.244,0.123c0.843,0.082,1.673,0.191,2.489,0.327
				c0.816,0.136,1.563,0.273,2.245,0.408c0.68,0.136,1.184,0.259,1.51,0.367l-1.306,6.611c-0.6-0.217-1.592-0.476-2.979-0.775
				c-1.388-0.299-3.171-0.449-5.346-0.449c-1.416,0-2.816,0.15-4.204,0.449c-1.388,0.3-2.299,0.504-2.734,0.612v35.668h-7.591
				V45.648c1.796-0.653,4.026-1.265,6.693-1.836C322.228,43.24,325.221,42.954,328.542,42.954z"/>
			<path style="fill:#0FA3B1;" d="M351.476,43.852h16.079v6.367h-16.079v19.589c0,2.122,0.163,3.877,0.489,5.265
				c0.327,1.388,0.816,2.477,1.47,3.265c0.652,0.789,1.469,1.347,2.448,1.673c0.979,0.327,2.122,0.49,3.428,0.49
				c2.286,0,4.122-0.258,5.51-0.775c1.388-0.517,2.354-0.884,2.897-1.102l1.47,6.284c-0.763,0.382-2.096,0.857-4,1.429
				c-1.905,0.571-4.081,0.856-6.529,0.856c-2.885,0-5.265-0.367-7.142-1.102c-1.878-0.734-3.388-1.836-4.53-3.306
				c-1.143-1.469-1.946-3.277-2.408-5.428c-0.463-2.148-0.693-4.639-0.693-7.469V32.017l7.591-1.306V43.852z"/>
			<path style="fill:#0B7A85;" d="M380.94,36.18c-1.36,0-2.518-0.449-3.469-1.347c-0.953-0.898-1.429-2.108-1.429-3.632
				c0-1.522,0.476-2.734,1.429-3.632c0.951-0.898,2.108-1.347,3.469-1.347c1.359,0,2.517,0.449,3.469,1.347
				c0.951,0.898,1.429,2.109,1.429,3.632c0,1.524-0.478,2.734-1.429,3.632C383.457,35.731,382.299,36.18,380.94,36.18z
				 M384.776,86.295h-7.591V43.852h7.591V86.295z"/>
			<path style="fill:#0B7A85;" d="M444.767,57.973c0,4.897-0.763,9.155-2.286,12.773c-1.523,3.619-3.673,6.611-6.447,8.979
				c-2.775,2.367-6.095,4.136-9.958,5.306c-3.864,1.17-8.108,1.754-12.732,1.754c-2.286,0-4.804-0.095-7.551-0.285
				c-2.748-0.191-5.237-0.558-7.468-1.102v-54.85c2.23-0.543,4.72-0.911,7.468-1.102c2.747-0.19,5.265-0.286,7.551-0.286
				c4.624,0,8.868,0.585,12.732,1.755c3.863,1.171,7.183,2.938,9.958,5.306c2.774,2.367,4.924,5.36,6.447,8.978
				C444.005,48.819,444.767,53.075,444.767,57.973z M413.996,79.847c7.509,0,13.113-1.918,16.814-5.754
				c3.699-3.836,5.55-9.209,5.55-16.12c0-6.91-1.851-12.284-5.55-16.12c-3.701-3.836-9.306-5.754-16.814-5.754
				c-2.231,0-3.958,0.028-5.183,0.082c-1.225,0.055-2.081,0.11-2.571,0.163v43.259c0.49,0.056,1.347,0.11,2.571,0.164
				C410.038,79.821,411.764,79.847,413.996,79.847z"/>
		</g>
	</g>
</g>
<g>
</g>
<g>
</g>
<g>
</g>
<g>
</g>
<g>
</g>
<g>
</g>
<g>
</g>
<g>
</g>
<g>
</g>
<g>
</g>
<g>
</g>
<g>
</g>
<g>
</g>
<g>
</g>
<g>
</g>
</svg>
