<?xml version="1.0" encoding="iso-8859-1"?>
<!-- Generator: Adobe Illustrator 18.1.1, SVG Export Plug-In . SVG Version: 6.00 Build 0)  -->
<!DOCTYPE svg PUBLIC "-//W3C//DTD SVG 1.1//EN" "http://www.w3.org/Graphics/SVG/1.1/DTD/svg11.dtd">
<svg version="1.1" id="Layer_1" xmlns="http://www.w3.org/2000/svg" xmlns:xlink="http://www.w3.org/1999/xlink" x="0px" y="0px"
	 viewBox="0 0 134.437 98.013" style="enable-background:new 0 0 134.437 98.013;" xml:space="preserve">
<g>
	<g>
		<path style="fill:#FF971A;" d="M105.128,19.096L77.641,4.211c-2.607-1.412-6.193-0.326-7.605,2.282L53.957,36.37H34.401
			c-2.499,0-4.454,1.956-4.454,4.454v7.822V89.17c0,2.499,1.956,4.454,4.454,4.454h62.47c2.499,0,4.454-1.956,4.454-4.454V77.871
			h1.847c0.978,0,1.738-0.76,1.738-1.738V63.205c0-0.978-0.76-1.738-1.738-1.738h-1.847V48.755c0-2.064-1.521-3.911-3.477-4.346
			l9.561-17.709C108.822,23.984,107.844,20.617,105.128,19.096z M85.572,12.468L68.406,44.301h-4.889l18.361-33.788L85.572,12.468z
			 M73.187,8.123c0.543-0.978,1.847-1.412,2.825-0.869l2.716,1.521L59.606,44.301h-5.975L73.187,8.123z M33.315,40.716
			c0-0.326,0.435-0.869,0.978-0.869h17.709l-2.39,4.346H34.293c-0.326,0-0.652,0-0.978,0.109L33.315,40.716L33.315,40.716z
			 M97.74,89.17c0,0.543-0.435,0.978-0.978,0.978h-62.47c-0.543,0-0.978-0.435-0.978-0.978V48.755c0-0.543,0.435-0.978,0.978-0.978
			h16.405h6.953h12.711h24.445h1.847c0.543,0,0.978,0.435,0.978,0.978v12.711h-6.627l0,0c-2.933,0-5.215,2.39-5.215,5.215v5.975
			c0,2.933,2.39,5.215,5.215,5.215h6.736L97.74,89.17L97.74,89.17z M101.217,64.943h0.109v9.452h-0.109H91.004
			c-0.978,0-1.738-0.76-1.738-1.738v-5.975c0-0.978,0.761-1.738,1.738-1.738H101.217z M104.259,24.962l-10.43,19.338H72.318
			l16.296-30.094l14.775,8.04C104.476,22.681,104.802,23.984,104.259,24.962z"/>
	</g>
</g>
<g>
</g>
<g>
</g>
<g>
</g>
<g>
</g>
<g>
</g>
<g>
</g>
<g>
</g>
<g>
</g>
<g>
</g>
<g>
</g>
<g>
</g>
<g>
</g>
<g>
</g>
<g>
</g>
<g>
</g>
</svg>
