<?xml version="1.0" encoding="iso-8859-1"?>
<!-- Generator: Adobe Illustrator 18.1.1, SVG Export Plug-In . SVG Version: 6.00 Build 0)  -->
<!DOCTYPE svg PUBLIC "-//W3C//DTD SVG 1.1//EN" "http://www.w3.org/Graphics/SVG/1.1/DTD/svg11.dtd">
<svg version="1.1" id="Layer_1" xmlns="http://www.w3.org/2000/svg" xmlns:xlink="http://www.w3.org/1999/xlink" x="0px" y="0px"
	 viewBox="0 0 138.411 101.987" style="enable-background:new 0 0 138.411 101.987;" xml:space="preserve">
<g>
	<g>
		<g>
			<path style="fill:#FF971A;" d="M111.519,3.974H28.482c-5.329,0-9.664,4.335-9.664,9.664v55.134c0,5.33,4.335,9.666,9.664,9.666
				h27.389c-0.247,5.331-1.2,10.498-2.844,15.409h-6.691c-1.216,0-2.201,0.986-2.201,2.201s0.986,2.201,2.201,2.201h47.33
				c1.216,0,2.201-0.986,2.201-2.201s-0.986-2.201-2.201-2.201h-6.691c-1.644-4.911-2.598-10.078-2.844-15.409h27.389
				c5.329,0,9.664-4.336,9.664-9.666V13.638C121.183,8.309,116.848,3.974,111.519,3.974z M23.22,13.638
				c0-2.901,2.36-5.261,5.261-5.261h83.037c2.901,0,5.261,2.36,5.261,5.261v50.275H23.22V13.638z M57.653,93.847
				c1.518-4.939,2.399-10.102,2.627-15.409h19.44c0.229,5.306,1.109,10.469,2.627,15.409H57.653z M116.78,68.772L116.78,68.772
				c0,2.902-2.361,5.264-5.262,5.264H28.482c-2.901,0-5.261-2.361-5.261-5.264v-0.456h93.56V68.772z"/>
			<path style="fill:#FF971A;" d="M99.354,55.108H51.953c-1.216,0-2.201,0.986-2.201,2.201s0.986,2.201,2.201,2.201h47.401
				c1.216,0,2.201-0.986,2.201-2.201C101.555,56.093,100.569,55.108,99.354,55.108z"/>
			<path style="fill:#FF971A;" d="M41.001,55.108h-0.354c-1.216,0-2.201,0.986-2.201,2.201s0.986,2.201,2.201,2.201h0.354
				c1.216,0,2.201-0.986,2.201-2.201C43.202,56.093,42.217,55.108,41.001,55.108z"/>
			<path style="fill:#FF971A;" d="M82.989,22.185L95.966,33.28L82.989,44.374c-0.924,0.79-1.033,2.18-0.243,3.104
				c0.435,0.509,1.053,0.771,1.674,0.771c0.506,0,1.015-0.174,1.429-0.528l14.934-12.768c0.489-0.418,0.771-1.03,0.771-1.673
				c0-0.644-0.281-1.255-0.771-1.673L85.85,18.838c-0.924-0.79-2.314-0.681-3.104,0.243C81.956,20.005,82.064,21.395,82.989,22.185z
				"/>
			<path style="fill:#FF971A;" d="M39.216,34.953l14.934,12.768c0.415,0.355,0.923,0.528,1.429,0.528
				c0.621,0,1.239-0.262,1.674-0.771c0.79-0.924,0.682-2.314-0.243-3.104L44.034,33.28l12.977-11.095
				c0.924-0.79,1.033-2.18,0.243-3.104s-2.18-1.033-3.104-0.243L39.216,31.606c-0.489,0.418-0.771,1.03-0.771,1.673
				C38.445,33.923,38.727,34.535,39.216,34.953z"/>
			<path style="fill:#FF971A;" d="M63.705,52.618c0.226,0.074,0.456,0.109,0.682,0.109c0.927,0,1.79-0.591,2.093-1.52l11.227-34.49
				c0.376-1.156-0.256-2.398-1.412-2.775c-1.156-0.376-2.398,0.256-2.775,1.412l-11.227,34.49
				C61.917,50.999,62.549,52.242,63.705,52.618z"/>
		</g>
	</g>
</g>
<g>
</g>
<g>
</g>
<g>
</g>
<g>
</g>
<g>
</g>
<g>
</g>
<g>
</g>
<g>
</g>
<g>
</g>
<g>
</g>
<g>
</g>
<g>
</g>
<g>
</g>
<g>
</g>
<g>
</g>
</svg>
