<?xml version="1.0" encoding="iso-8859-1"?>
<!-- Generator: Adobe Illustrator 18.1.1, SVG Export Plug-In . SVG Version: 6.00 Build 0)  -->
<!DOCTYPE svg PUBLIC "-//W3C//DTD SVG 1.1//EN" "http://www.w3.org/Graphics/SVG/1.1/DTD/svg11.dtd">
<svg version="1.1" id="Layer_1" xmlns="http://www.w3.org/2000/svg" xmlns:xlink="http://www.w3.org/1999/xlink" x="0px" y="0px"
	 viewBox="0 0 134.437 98.013" style="enable-background:new 0 0 134.437 98.013;" xml:space="preserve">
<g>
	<g>
		<g>
			<path style="fill:#FF971A;" d="M77.858,11.284L63.106,26.034H38.47c0-7.554-6.146-13.702-13.702-13.702
				S11.065,18.48,11.065,26.034v50.894c0,7.554,6.146,13.702,13.702,13.702S38.47,84.481,38.47,76.928h41.107
				c3.238,0,5.872-2.635,5.872-5.872V48.376l2.345-2.345c2.58,1.171,6.732,2.402,11.704,1.505c7.689-1.39,11.917-6.992,13.031-8.679
				l-3.267-2.157c-0.897,1.355-4.299,5.868-10.459,6.98c-4.759,0.859-8.593-0.724-10.455-1.748
				c-0.763-0.419-1.711-0.284-2.325,0.333l-3.915,3.915l-9.687,9.687c-1.582,1.584-4.093,1.723-5.849,0.315
				c-0.965-0.771-1.544-1.873-1.634-3.105c-0.094-1.227,0.325-2.406,1.167-3.31l22.734-24.357l-2.862-2.672l-3.717,3.981
				c-0.826-0.431-1.736-0.687-2.682-0.687H68.642l11.982-11.982c1.094-1.094,2.607-1.721,4.154-1.721h43.736V8.416H84.777
				C82.164,8.416,79.706,9.436,77.858,11.284z M36.512,29.948h42.735L63.24,47.1c-1.57,1.681-2.382,3.978-2.208,6.264
				c0.166,2.298,1.294,4.441,3.103,5.888c1.654,1.323,3.668,1.918,5.643,1.809c1.975-0.11,3.913-0.924,5.41-2.421l6.346-6.348
				v18.764c0,1.081-0.879,1.957-1.957,1.957H36.512h-9.787V29.948H36.512z M22.81,27.991V74.97c0,1.082,0.877,1.957,1.957,1.957
				h9.787c0,5.397-4.391,9.787-9.787,9.787s-9.787-4.391-9.787-9.787V26.034c0-5.397,4.391-9.787,9.787-9.787
				s9.787,4.391,9.787,9.787h-9.787C23.687,26.034,22.81,26.909,22.81,27.991z"/>
		</g>
	</g>
	<g>
		<g>
			<path style="fill:#FF971A;" d="M113.76,49.828c-4.099,2.607-8.161,3.404-10.848,3.615l0.305,3.903
				c3.13-0.245,7.863-1.174,12.641-4.214c3.365-2.14,6.28-5.052,8.433-8.429l-3.302-2.106
				C119.141,45.495,116.641,47.996,113.76,49.828z"/>
		</g>
	</g>
	<g>
		<g>
			<path style="fill:#FF971A;" d="M30.64,41.693v3.915c0,3.238,2.635,5.872,5.872,5.872h7.83c3.238,0,5.872-2.635,5.872-5.872
				v-3.915c0-3.238-2.635-5.872-5.872-5.872h-7.83C33.275,35.821,30.64,38.456,30.64,41.693z M44.342,39.736
				c1.079,0,1.957,0.877,1.957,1.957v3.915c0,1.081-0.879,1.957-1.957,1.957h-7.83c-1.079,0-1.957-0.877-1.957-1.957v-3.915
				c0-1.081,0.879-1.957,1.957-1.957H44.342z"/>
		</g>
	</g>
	<g>
		<g>
			<rect x="30.64" y="63.225" style="fill:#FF971A;" width="9.787" height="3.915"/>
		</g>
	</g>
</g>
<g>
</g>
<g>
</g>
<g>
</g>
<g>
</g>
<g>
</g>
<g>
</g>
<g>
</g>
<g>
</g>
<g>
</g>
<g>
</g>
<g>
</g>
<g>
</g>
<g>
</g>
<g>
</g>
<g>
</g>
</svg>
